# xmcd
#
# Track frame offsets: 
#        150
#        13775
#        34000
#        51337
#        70650
#        87277
#        106010
#        127212
#        142535
#        156027
#        173400
#        186172
#        207985
#        236340
#
# Disc length: 3348 seconds
#
# Revision: 2
# Processed by: cddbd v1.4PL0 Copyright (c) Steve Scherf et al.
# Submitted via: ExactAudioCopy v0.90b4
#
DISCID=ae0d120e
DTITLE=Sam Brown - The Kissing Gate
DYEAR=1993
DGENRE=Blues
TTITLE0=Can I Get A Witness
TTITLE1=Hypnotised
TTITLE2=With A Little Love
TTITLE3=Once In Your Life
TTITLE4=April Moon
TTITLE5=Mind Works
TTITLE6=Contradictions
TTITLE7=Kissing Gate
TTITLE8=S'envoler
TTITLE9=Where You Are
TTITLE10=As One
TTITLE11=Eye For An Eye
TTITLE12=Trouble Soul
TTITLE13=This Feeling
EXTD=
EXTT0=
EXTT1=
EXTT2=
EXTT3=
EXTT4=
EXTT5=
EXTT6=
EXTT7=
EXTT8=
EXTT9=
EXTT10=
EXTT11=
EXTT12=
EXTT13=
PLAYORDER=
